<?xml version="1.0" encoding="UTF-8" standalone="no"?>
<!-- Created with Inkscape (http://www.inkscape.org/) -->

<svg
   version="1.1"
   id="svg132"
   width="972"
   height="290.66666"
   viewBox="0 0 972 290.66666"
   sodipodi:docname="BARAM_Logo.svg"
   inkscape:version="1.2.1 (9c6d41e410, 2022-07-14)"
   xmlns:inkscape="http://www.inkscape.org/namespaces/inkscape"
   xmlns:sodipodi="http://sodipodi.sourceforge.net/DTD/sodipodi-0.dtd"
   xmlns="http://www.w3.org/2000/svg"
   xmlns:svg="http://www.w3.org/2000/svg">
  <defs
     id="defs136">
    <clipPath
       clipPathUnits="userSpaceOnUse"
       id="clipPath148">
      <path
         d="M 0,218 H 729 V 0 H 0 Z"
         id="path146" />
    </clipPath>
  </defs>
  <sodipodi:namedview
     id="namedview134"
     pagecolor="#ffffff"
     bordercolor="#000000"
     borderopacity="0.25"
     inkscape:showpageshadow="2"
     inkscape:pageopacity="0.0"
     inkscape:pagecheckerboard="true"
     inkscape:deskcolor="#d1d1d1"
     showgrid="false"
     inkscape:zoom="1.3209877"
     inkscape:cx="486"
     inkscape:cy="145.34579"
     inkscape:window-width="1920"
     inkscape:window-height="1017"
     inkscape:window-x="1912"
     inkscape:window-y="-8"
     inkscape:window-maximized="1"
     inkscape:current-layer="g140">
    <inkscape:page
       x="0"
       y="0"
       id="page138"
       width="972"
       height="290.66666" />
  </sodipodi:namedview>
  <g
     id="g140"
     inkscape:groupmode="layer"
     inkscape:label="Page 1"
     transform="matrix(1.3333333,0,0,-1.3333333,0,290.66667)">
    <g
       id="g142">
      <g
         id="g144"
         clip-path="url(#clipPath148)">
        <g
           id="g150"
           transform="translate(664.752,85.6426)">
          <path
             d="m 0,0 c 0,-10.104 -8.192,-18.295 -18.312,-18.295 -10.111,0 -18.305,8.191 -18.305,18.295 0,10.109 8.194,18.307 18.305,18.307 C -8.192,18.307 0,10.109 0,0"
             style="fill:#ed1c24;fill-opacity:1;fill-rule:nonzero;stroke:none"
             id="path152" />
        </g>
        <g
           id="g154"
           transform="translate(695.373,125.8384)">
          <path
             d="m 0,0 c 0,-10.104 -8.188,-18.303 -18.299,-18.303 -10.104,0 -18.299,8.199 -18.299,18.303 0,10.109 8.195,18.303 18.299,18.303 C -8.188,18.303 0,10.109 0,0"
             style="fill:#f5821f;fill-opacity:1;fill-rule:nonzero;stroke:none"
             id="path156" />
        </g>
        <g
           id="g158"
           transform="translate(705.998,174.0493)">
          <path
             d="m 0,0 c 0,-10.106 -8.188,-18.299 -18.3,-18.299 -10.111,0 -18.299,8.193 -18.299,18.299 0,10.113 8.188,18.303 18.299,18.303 C -8.188,18.303 0,10.113 0,0"
             style="fill:#25247b;fill-opacity:1;fill-rule:nonzero;stroke:none"
             id="path160" />
        </g>
        <g
           id="g162"
           transform="translate(651.0996,174.0493)">
          <path
             d="m 0,0 c 0,-10.106 -8.194,-18.299 -18.299,-18.299 -10.111,0 -18.305,8.193 -18.305,18.299 0,10.113 8.194,18.303 18.305,18.303 C -8.194,18.303 0,10.113 0,0"
             style="fill:#005bab;fill-opacity:1;fill-rule:nonzero;stroke:none"
             id="path164" />
        </g>
        <g
           id="g166"
           transform="translate(596.1963,174.0493)">
          <path
             d="m 0,0 c 0,-10.106 -8.188,-18.299 -18.313,-18.299 -10.091,0 -18.286,8.193 -18.286,18.299 0,10.113 8.195,18.303 18.286,18.303 C -8.188,18.303 0,10.113 0,0"
             style="fill:#0095da;fill-opacity:1;fill-rule:nonzero;stroke:none"
             id="path168" />
        </g>
        <g
           id="g170"
           transform="translate(541.2852,174.0493)">
          <path
             d="m 0,0 c 0,-10.106 -8.182,-18.299 -18.3,-18.299 -10.097,0 -18.292,8.193 -18.292,18.299 0,10.113 8.195,18.303 18.292,18.303 C -8.182,18.303 0,10.113 0,0"
             style="fill:#8cc63f;fill-opacity:1;fill-rule:nonzero;stroke:none"
             id="path172" />
        </g>
        <g
           id="g174"
           transform="translate(77.2207,44.7051)">
          <path
             d="M 0,0 C 15.242,0 23.045,4.326 23.045,13.266 23.045,21.787 15.432,25.141 0,25.141 H -15.782 V 0 Z m -2.67,43.572 c 13.482,0 19.513,4.61 19.513,11.731 0,7.398 -6.21,10.474 -19.513,10.474 H -15.782 V 43.572 Z M -47.535,84.765 H 4.282 C 31.589,84.765 47.7,79.042 47.7,59.074 47.7,49.855 41.136,39.799 30.497,36.592 V 36.027 C 43.803,33.236 53.911,25.416 53.911,11.59 53.911,-9.635 36.726,-19.131 8.006,-19.131 h -55.541 z"
             style="fill:#25247b;fill-opacity:1;fill-rule:nonzero;stroke:none"
             id="path176" />
        </g>
        <g
           id="g178"
           transform="translate(202.0508,68.7285)">
          <path
             d="m 0,0 c 0,0 -9.743,31.557 -13.29,42.17 h -0.713 C -17.194,31.279 -26.955,0 -26.955,0 Z m 6.04,-19.277 h -39.021 l -7.625,-23.877 h -32.269 l 40.96,103.896 H 6.04 L 46.997,-43.154 H 13.653 Z"
             style="fill:#25247b;fill-opacity:1;fill-rule:nonzero;stroke:none"
             id="path180" />
        </g>
        <g
           id="g182"
           transform="translate(287.5244,81.8516)">
          <path
             d="m 0,0 h 14.189 c 15.072,0 23.054,5.164 23.054,14.943 0,9.776 -7.982,12.985 -23.054,12.985 L 0,27.928 Z m 39.548,-56.277 -24.29,36.586 H 0 V -56.277 H -31.737 V 47.619 h 54.109 c 28.192,0 45.91,-7.54 45.91,-32.676 0,-15.22 -9.05,-25 -22.708,-30.029 l 29.448,-41.191 z"
             style="fill:#25247b;fill-opacity:1;fill-rule:nonzero;stroke:none"
             id="path184" />
        </g>
        <g
           id="g186"
           transform="translate(428.5039,68.7285)">
          <path
             d="m 0,0 -2.829,8.795 c -3.547,10.334 -6.92,22.762 -10.474,33.375 h -0.699 C -17.2,31.279 -20.74,19.129 -24.114,8.795 L -26.954,0 Z m 6.04,-19.277 h -39.021 l -7.626,-23.877 H -72.891 L -31.914,60.742 H 6.04 L 46.992,-43.154 H 13.653 Z"
             style="fill:#25247b;fill-opacity:1;fill-rule:nonzero;stroke:none"
             id="path188" />
        </g>
        <g
           id="g190"
           transform="translate(573.0254,129.4702)">
          <path
             d="m 0,0 c 0,0 -24.827,-57.394 -27.48,-63.82 h -0.894 C -30.854,-57.394 -56.565,0 -56.565,0 h -34.219 v -103.896 h 28.372 v 55.986 l 25.169,-55.986 h 17.388 l 25.351,56.238 v -56.238 H 34.405 V 0 Z"
             style="fill:#25247b;fill-opacity:1;fill-rule:nonzero;stroke:none"
             id="path192" />
        </g>
      </g>
    </g>
  </g>
</svg>
